<svg width="864.012" height="180.4" xmlns="http://www.w3.org/2000/svg"><defs><marker id="a" markerWidth="16" markerHeight="12" refX="16" refY="6" viewBox="0 0 16 12" orient="auto" markerUnits="userSpaceOnUse" stroke-dasharray="0,0"><path d="m0 2 14 4-14 5V2" fill="#323232" stroke="#323232" stroke-width="2"/></marker><marker id="b" markerWidth="16" markerHeight="12" refX="16" refY="6" viewBox="0 0 16 12" orient="auto" markerUnits="userSpaceOnUse" stroke-dasharray="0,0"><path d="m0 2 14 4-14 5V2" fill="#323232" stroke="#323232" stroke-width="2"/></marker><marker id="c" markerWidth="16" markerHeight="12" refX="16" refY="6" viewBox="0 0 16 12" orient="auto" markerUnits="userSpaceOnUse" stroke-dasharray="0,0"><path d="m0 2 14 4-14 5V2" fill="#323232" stroke="#323232" stroke-width="2"/></marker><marker id="d" markerWidth="16" markerHeight="12" refX="16" refY="6" viewBox="0 0 16 12" orient="auto" markerUnits="userSpaceOnUse" stroke-dasharray="0,0"><path d="m0 2 14 4-14 5V2" fill="#323232" stroke="#323232" stroke-width="2"/></marker><marker id="e" markerWidth="16" markerHeight="12" refX="16" refY="6" viewBox="0 0 16 12" orient="auto" markerUnits="userSpaceOnUse" stroke-dasharray="0,0"><path d="m0 2 14 4-14 5V2" fill="#323232" stroke="#323232" stroke-width="2"/></marker></defs><path d="M25.012 55.4h100v70h-100z" stroke="rgba(50,50,50,1)" stroke-width="2" fill="#fff"/><text font-family="微软雅黑" text-anchor="middle" font-size="13" fill="#323232" font-weight="400" y="25.375" transform="translate(25.012 55.4)"><tspan dy="16" x="50"><tspan>父组件</tspan></tspan></text><path d="M259.012 55.4h100v70h-100z" stroke="rgba(50,50,50,1)" stroke-width="2" fill="#fff"/><text font-family="微软雅黑" text-anchor="middle" font-size="13" fill="#323232" font-weight="400" y="17.375" transform="translate(259.012 55.4)"><tspan dy="16" x="50"><tspan>子组件1</tspan></tspan><tspan dy="16" x="50"><tspan>isChild: true</tspan></tspan></text><path d="M499.012 55.4h100v70h-100z" stroke="rgba(50,50,50,1)" stroke-width="2" fill="#fff"/><text font-family="微软雅黑" text-anchor="middle" font-size="13" fill="#323232" font-weight="400" y="17.375" transform="translate(499.012 55.4)"><tspan dy="16" x="50"><tspan>子组件2</tspan></tspan><tspan dy="16" x="50"><tspan>isChild: true</tspan></tspan></text><path d="M739.012 55.4h100v70h-100z" stroke="rgba(50,50,50,1)" stroke-width="2" fill="#fff"/><text font-family="微软雅黑" text-anchor="middle" font-size="13" fill="#323232" font-weight="400" y="17.375" transform="translate(739.012 55.4)"><tspan dy="16" x="50"><tspan>子组件n</tspan></tspan><tspan dy="16" x="50"><tspan>isChild: true</tspan></tspan></text><path d="M259.012 90.4h-134" stroke="#323232" stroke-width="2" fill="none" marker-end="url(#a)"/><path fill="#fff" d="M148.512 83.4h87v14h-87z"/><text font-family="微软雅黑" text-anchor="middle" font-size="12" fill="#323232" font-weight="400" y="81.9"><tspan dy="15" x="192.012"><tspan>parComponent</tspan></tspan></text><path d="M499.012 90.4h-140" stroke="#323232" stroke-width="2" fill="none" marker-end="url(#b)"/><path fill="#fff" d="M385.512 83.4h87v14h-87z"/><text font-family="微软雅黑" text-anchor="middle" font-size="12" fill="#323232" font-weight="400" y="81.9"><tspan dy="15" x="429.012"><tspan>parComponent</tspan></tspan></text><path d="M739.012 90.4h-140" stroke="#323232" stroke-width="2" fill="none" marker-end="url(#c)"/><path fill="#fff" d="M625.512 83.4h87v14h-87z"/><text font-family="微软雅黑" text-anchor="middle" font-size="12" fill="#323232" font-weight="400" y="81.9"><tspan dy="15" x="669.012"><tspan>parComponent</tspan></tspan></text><path d="M549.012 125.4V155h-483v-29.6" stroke="#323232" stroke-width="2" fill="none" marker-end="url(#d)"/><path fill="#fff" d="M242.512 147h130v16h-130z"/><text font-family="微软雅黑" text-anchor="middle" font-size="13" fill="#323232" font-weight="400" y="145.375"><tspan dy="16" x="307.512"><tspan>commonComponent</tspan></tspan></text><path d="M789.012 55.4V25h-714v30.4" stroke="#323232" stroke-width="2" fill="none" marker-end="url(#e)"/><path fill="#fff" d="M367.012 17h130v16h-130z"/><text font-family="微软雅黑" text-anchor="middle" font-size="13" fill="#323232" font-weight="400" y="15.375"><tspan dy="16" x="432.012"><tspan>commonComponent</tspan></tspan></text></svg>