<svg width="879.413" height="975.8" xmlns="http://www.w3.org/2000/svg"><defs><marker id="a" markerWidth="16" markerHeight="12" refX="16" refY="6" viewBox="0 0 16 12" orient="auto" markerUnits="userSpaceOnUse" stroke-dasharray="0,0"><path d="m0 2 14 4-14 5V2" fill="#323232" stroke="#323232" stroke-width="2"/></marker><marker id="b" markerWidth="16" markerHeight="12" refX="16" refY="6" viewBox="0 0 16 12" orient="auto" markerUnits="userSpaceOnUse" stroke-dasharray="0,0"><path d="m0 2 14 4-14 5V2" fill="#323232" stroke="#323232" stroke-width="2"/></marker><marker id="c" markerWidth="16" markerHeight="12" refX="16" refY="6" viewBox="0 0 16 12" orient="auto" markerUnits="userSpaceOnUse" stroke-dasharray="0,0"><path d="m0 2 14 4-14 5V2" fill="#323232" stroke="#323232" stroke-width="2"/></marker><marker id="d" markerWidth="16" markerHeight="12" refX="16" refY="6" viewBox="0 0 16 12" orient="auto" markerUnits="userSpaceOnUse" stroke-dasharray="0,0"><path d="m0 2 14 4-14 5V2" fill="#323232" stroke="#323232" stroke-width="2"/></marker><marker id="e" markerWidth="16" markerHeight="12" refX="16" refY="6" viewBox="0 0 16 12" orient="auto" markerUnits="userSpaceOnUse" stroke-dasharray="0,0"><path d="m0 2 14 4-14 5V2" fill="#323232" stroke="#323232" stroke-width="2"/></marker><marker id="f" markerWidth="16" markerHeight="12" refX="16" refY="6" viewBox="0 0 16 12" orient="auto" markerUnits="userSpaceOnUse" stroke-dasharray="0,0"><path d="m0 2 14 4-14 5V2" fill="#323232" stroke="#323232" stroke-width="2"/></marker><marker id="g" markerWidth="16" markerHeight="12" refX="16" refY="6" viewBox="0 0 16 12" orient="auto" markerUnits="userSpaceOnUse" stroke-dasharray="0,0"><path d="m0 2 14 4-14 5V2" fill="#323232" stroke="#323232" stroke-width="2"/></marker><marker id="h" markerWidth="16" markerHeight="12" refX="16" refY="6" viewBox="0 0 16 12" orient="auto" markerUnits="userSpaceOnUse" stroke-dasharray="0,0"><path d="m0 2 14 4-14 5V2" fill="#323232" stroke="#323232" stroke-width="2"/></marker><marker id="i" markerWidth="16" markerHeight="12" refX="16" refY="6" viewBox="0 0 16 12" orient="auto" markerUnits="userSpaceOnUse" stroke-dasharray="0,0"><path d="m0 2 14 4-14 5V2" fill="#323232" stroke="#323232" stroke-width="2"/></marker><marker id="j" markerWidth="16" markerHeight="12" refX="16" refY="6" viewBox="0 0 16 12" orient="auto" markerUnits="userSpaceOnUse" stroke-dasharray="0,0"><path d="m0 2 14 4-14 5V2" fill="#323232" stroke="#323232" stroke-width="2"/></marker><marker id="k" markerWidth="16" markerHeight="12" refX="16" refY="6" viewBox="0 0 16 12" orient="auto" markerUnits="userSpaceOnUse" stroke-dasharray="0,0"><path d="m0 2 14 4-14 5V2" fill="#323232" stroke="#323232" stroke-width="2"/></marker><marker id="l" markerWidth="16" markerHeight="12" refX="16" refY="6" viewBox="0 0 16 12" orient="auto" markerUnits="userSpaceOnUse" stroke-dasharray="0,0"><path d="m0 2 14 4-14 5V2" fill="#323232" stroke="#323232" stroke-width="2"/></marker><marker id="m" markerWidth="16" markerHeight="12" refX="16" refY="6" viewBox="0 0 16 12" orient="auto" markerUnits="userSpaceOnUse" stroke-dasharray="0,0"><path d="m0 2 14 4-14 5V2" fill="#323232" stroke="#323232" stroke-width="2"/></marker><marker id="n" markerWidth="16" markerHeight="12" refX="16" refY="6" viewBox="0 0 16 12" orient="auto" markerUnits="userSpaceOnUse" stroke-dasharray="0,0"><path d="m0 2 14 4-14 5V2" fill="#323232" stroke="#323232" stroke-width="2"/></marker><marker id="o" markerWidth="16" markerHeight="12" refX="16" refY="6" viewBox="0 0 16 12" orient="auto" markerUnits="userSpaceOnUse" stroke-dasharray="0,0"><path d="m0 2 14 4-14 5V2" fill="#323232" stroke="#323232" stroke-width="2"/></marker><marker id="p" markerWidth="16" markerHeight="12" refX="16" refY="6" viewBox="0 0 16 12" orient="auto" markerUnits="userSpaceOnUse" stroke-dasharray="0,0"><path d="m0 2 14 4-14 5V2" fill="#323232" stroke="#323232" stroke-width="2"/></marker><marker id="q" markerWidth="16" markerHeight="12" refX="16" refY="6" viewBox="0 0 16 12" orient="auto" markerUnits="userSpaceOnUse" stroke-dasharray="0,0"><path d="m0 2 14 4-14 5V2" fill="#323232" stroke="#323232" stroke-width="2"/></marker><marker id="r" markerWidth="16" markerHeight="12" refX="16" refY="6" viewBox="0 0 16 12" orient="auto" markerUnits="userSpaceOnUse" stroke-dasharray="0,0"><path d="m0 2 14 4-14 5V2" fill="#323232" stroke="#323232" stroke-width="2"/></marker><marker id="s" markerWidth="16" markerHeight="12" refX="16" refY="6" viewBox="0 0 16 12" orient="auto" markerUnits="userSpaceOnUse" stroke-dasharray="0,0"><path d="m0 2 14 4-14 5V2" fill="#323232" stroke="#323232" stroke-width="2"/></marker><marker id="t" markerWidth="16" markerHeight="12" refX="16" refY="6" viewBox="0 0 16 12" orient="auto" markerUnits="userSpaceOnUse" stroke-dasharray="0,0"><path d="m0 2 14 4-14 5V2" fill="#323232" stroke="#323232" stroke-width="2"/></marker><marker id="u" markerWidth="16" markerHeight="12" refX="16" refY="6" viewBox="0 0 16 12" orient="auto" markerUnits="userSpaceOnUse" stroke-dasharray="0,0"><path d="m0 2 14 4-14 5V2" fill="#323232" stroke="#323232" stroke-width="2"/></marker></defs><path d="M451.08 25h66.666c22.222 0 22.222 50 0 50h-66.667c-22.222 0-22.222-50 0-50z" stroke="rgba(50,50,50,1)" stroke-width="2" fill="#fff"/><text font-family="微软雅黑" text-anchor="middle" font-size="13" fill="#323232" font-weight="400" y="15.375" transform="translate(434.413 25)"><tspan dy="16" x="50"><tspan>提交代码</tspan></tspan></text><path d="M421.913 126h125v50h-125z" stroke="rgba(50,50,50,1)" stroke-width="2" fill="#fff"/><text font-family="微软雅黑" text-anchor="middle" font-size="13" fill="#323232" font-weight="400" y="15.375" transform="translate(421.913 126)"><tspan dy="16" x="62.5"><tspan>Github 私有仓库</tspan></tspan></text><path d="M484.413 75v51" stroke="#323232" stroke-width="2" fill="none" marker-end="url(#a)"/><path fill="#fff" d="M451.913 84.85h71v16h-71z"/><text font-family="微软雅黑" text-anchor="middle" font-size="13" fill="#323232" font-weight="400" y="83.225"><tspan dy="16" x="487.413"><tspan>SSH &amp; GPG</tspan></tspan></text><path d="M421.913 238h125v50h-125z" stroke="rgba(50,50,50,1)" stroke-width="2" fill="#fff"/><text font-family="微软雅黑" text-anchor="middle" font-size="13" fill="#323232" font-weight="400" y="15.375" transform="translate(421.913 238)"><tspan dy="16" x="62.5"><tspan>Github Action</tspan></tspan></text><path d="M484.413 176v62" stroke="#323232" stroke-width="2" fill="none" marker-end="url(#b)"/><path fill="#fff" d="M461.913 191.25h54v16h-54z"/><text font-family="微软雅黑" text-anchor="middle" font-size="13" fill="#323232" font-weight="400" y="189.625"><tspan dy="16" x="488.913"><tspan>on: push</tspan></tspan></text><path d="M426.413 351.4h116v50h-116z" stroke="rgba(50,50,50,1)" stroke-width="2" fill="#fff"/><text font-family="微软雅黑" text-anchor="middle" font-size="13" fill="#323232" font-weight="400" y="15.375" transform="translate(426.413 351.4)"><tspan dy="16" x="58"><tspan>部署博客</tspan></tspan></text><path d="M484.413 288v63.4" stroke="#323232" stroke-width="2" fill="none" marker-end="url(#c)"/><path fill="#fff" d="M444.913 298.945h70v32h-70z"/><text font-family="微软雅黑" text-anchor="middle" font-size="13" fill="#323232" font-weight="400" y="297.32"><tspan dy="16" x="479.913"><tspan>self-hosted</tspan></tspan><tspan dy="16" x="479.913"><tspan>自托管主机</tspan></tspan></text><path d="M349.012 474.4h116v46h-116z" stroke="rgba(50,50,50,1)" stroke-width="2" fill="#fff"/><text font-family="微软雅黑" text-anchor="middle" font-size="13" fill="#323232" font-weight="400" y="5.375" transform="translate(349.012 474.4)"><tspan dy="16" x="58"><tspan>inkss.github.io</tspan></tspan><tspan dy="16" x="58"><tspan> 仓库</tspan></tspan></text><path d="M484.413 401.4v50.5h-77.4v22.5" stroke="#323232" stroke-width="2" fill="none" marker-end="url(#d)"/><path d="M506.913 472.4h125v50h-125z" stroke="rgba(50,50,50,1)" stroke-width="2" fill="#fff"/><text font-family="微软雅黑" text-anchor="middle" font-size="13" fill="#323232" font-weight="400" y="15.375" transform="translate(506.913 472.4)"><tspan dy="16" x="62.5"><tspan>服务器仓库</tspan></tspan></text><path d="M484.413 401.4v50.5h85v20.5" stroke="#323232" stroke-width="2" fill="none" marker-end="url(#e)"/><path fill="#fff" d="M392.913 418.65h183v16h-183z"/><text font-family="微软雅黑" text-anchor="middle" font-size="13" fill="#323232" font-weight="400" y="417.025"><tspan dy="16" x="484.413"><tspan>hexo deploy --config _git.yml</tspan></tspan></text><path d="M708.913 351.4h125v50h-125z" stroke="rgba(50,50,50,1)" stroke-width="2" fill="#fff"/><text font-family="微软雅黑" text-anchor="middle" font-size="13" fill="#323232" font-weight="400" y="7.375" transform="translate(708.913 351.4)"><tspan dy="16" x="62.5"><tspan>部署博客</tspan></tspan><tspan dy="16" x="62.5"><tspan>到对象存储</tspan></tspan></text><path d="M713.413 576.4h116v50h-116z" stroke="rgba(50,50,50,1)" stroke-width="2" fill="#fff"/><text font-family="微软雅黑" text-anchor="middle" font-size="13" fill="#323232" font-weight="400" y="15.375" transform="translate(713.413 576.4)"><tspan dy="16" x="58"><tspan>刷新 CDN 缓存</tspan></tspan></text><path d="M211.413 351.4h100v50h-100z" stroke="rgba(50,50,50,1)" stroke-width="2" fill="#fff"/><text font-family="微软雅黑" text-anchor="middle" font-size="13" fill="#323232" font-weight="400" y="7.375" transform="translate(211.413 351.4)"><tspan dy="16" x="50"><tspan>同步文件到对</tspan></tspan><tspan dy="16" x="50"><tspan>应仓库</tspan></tspan></text><path d="M421.913 263h-160.5v88.4" stroke="#323232" stroke-width="2" fill="none" marker-end="url(#f)"/><path fill="#fff" d="M286.638 255h85v16h-85z"/><text font-family="微软雅黑" text-anchor="middle" font-size="13" fill="#323232" font-weight="400" y="253.375"><tspan dy="16" x="329.138"><tspan>ubuntu-latest</tspan></tspan></text><path d="M506.913 578.4h125v46h-125z" stroke="rgba(50,50,50,1)" stroke-width="2" fill="#fff"/><text font-family="微软雅黑" text-anchor="middle" font-size="13" fill="#323232" font-weight="400" y="5.375" transform="translate(506.913 578.4)"><tspan dy="16" x="62.5"><tspan>克隆代码至</tspan></tspan><tspan dy="16" x="62.5"><tspan>网站目录</tspan></tspan></text><path d="M569.413 522.4v56" stroke="#323232" stroke-width="2" fill="none" marker-end="url(#g)"/><path fill="#fff" d="M521.413 538.2h90v16h-90z"/><text font-family="微软雅黑" text-anchor="middle" font-size="13" fill="#323232" font-weight="400" y="536.575"><tspan dy="16" x="566.413"><tspan>内网 Webhook</tspan></tspan></text><path d="M206.913 472.4h109v50h-109z" stroke="rgba(50,50,50,1)" stroke-width="2" fill="#fff"/><text font-family="微软雅黑" text-anchor="middle" font-size="13" fill="#323232" font-weight="400" y="7.375" transform="translate(206.913 472.4)"><tspan dy="16" x="54.5"><tspan>common</tspan></tspan><tspan dy="16" x="54.5"><tspan>仓库</tspan></tspan></text><path d="M261.413 401.4v71" stroke="#323232" stroke-width="2" fill="none" marker-end="url(#h)"/><path fill="#fff" d="M235.413 428.9h52v16h-52z"/><text font-family="微软雅黑" text-anchor="middle" font-size="13" fill="#323232" font-weight="400" y="427.275"><tspan dy="16" x="261.413"><tspan>静态文件</tspan></tspan></text><path d="M25.012 351.4h100v50h-100z" stroke="rgba(50,50,50,1)" stroke-width="2" fill="#fff"/><text font-family="微软雅黑" text-anchor="middle" font-size="13" fill="#323232" font-weight="400" y="7.375" transform="translate(25.012 351.4)"><tspan dy="16" x="50"><tspan>markdown</tspan></tspan><tspan dy="16" x="50"><tspan>仓库</tspan></tspan></text><path d="M211.413 376.4h-86.4" stroke="#323232" stroke-width="2" fill="none" marker-end="url(#i)"/><path fill="#fff" d="M155.213 360.4h26v32h-26z"/><text font-family="微软雅黑" text-anchor="middle" font-size="13" fill="#323232" font-weight="400" y="358.775"><tspan dy="16" x="168.213"><tspan>MD</tspan></tspan><tspan dy="16" x="168.213"><tspan>文件</tspan></tspan></text><path d="M451.08 900.8h66.666c22.222 0 22.222 50 0 50h-66.667c-22.222 0-22.222-50 0-50z" stroke="rgba(50,50,50,1)" stroke-width="2" fill="#fff"/><text font-family="微软雅黑" text-anchor="middle" font-size="13" fill="#323232" font-weight="400" y="15.375" transform="translate(434.413 900.8)"><tspan dy="16" x="50"><tspan>用户</tspan></tspan></text><path d="M437.413 809.8h94v46h-94z" stroke="rgba(50,50,50,1)" stroke-width="2" fill="#fff"/><text font-family="微软雅黑" text-anchor="middle" font-size="13" fill="#323232" font-weight="400" y="13.375" transform="translate(437.413 809.8)"><tspan dy="16" x="47"><tspan>域名访问</tspan></tspan></text><path d="M437.413 701.8h94v46h-94z" stroke="rgba(50,50,50,1)" stroke-width="2" fill="#fff"/><text font-family="微软雅黑" text-anchor="middle" font-size="13" fill="#323232" font-weight="400" y="13.375" transform="translate(437.413 701.8)"><tspan dy="16" x="47"><tspan>CDN</tspan></tspan></text><path d="M569.413 624.4v38.7h-85v38.7" stroke="#323232" stroke-width="2" fill="none" marker-end="url(#j)"/><path fill="#fff" d="M513.913 655.1h26v16h-26z"/><text font-family="微软雅黑" text-anchor="middle" font-size="13" fill="#323232" font-weight="400" y="653.475"><tspan dy="16" x="526.913"><tspan>主源</tspan></tspan></text><path d="M771.413 626.4v98.4h-240" stroke="#323232" stroke-width="2" fill="none" marker-end="url(#k)"/><path fill="#fff" d="M730.413 661.44h84v48h-84z"/><text font-family="微软雅黑" text-anchor="middle" font-size="13" fill="#323232" font-weight="400" y="659.815"><tspan dy="16" x="772.413"><tspan>静态资源</tspan></tspan><tspan dy="16" x="772.413"><tspan>static.inkss.cn</tspan></tspan><tspan dy="16" x="772.413"><tspan>(img/js/css)</tspan></tspan></text><path d="M261.413 522.4v202.4h176" stroke="#323232" stroke-width="2" fill="none" marker-end="url(#l)"/><path fill="#fff" d="M211.413 660.32h94v48h-94z"/><text font-family="微软雅黑" text-anchor="middle" font-size="13" fill="#323232" font-weight="400" y="658.695"><tspan dy="16" x="258.413"><tspan>静态资源</tspan></tspan><tspan dy="16" x="258.413"><tspan>cdn.jsdelivr.net</tspan></tspan><tspan dy="16" x="258.413"><tspan>(fonts)</tspan></tspan></text><path d="M484.413 747.8v62" stroke="#323232" stroke-width="2" fill="none" marker-end="url(#m)"/><path fill="#fff" d="M460.413 770.8h48v16h-48z"/><text font-family="微软雅黑" text-anchor="middle" font-size="13" fill="#323232" font-weight="400" y="769.175"><tspan dy="16" x="484.413"><tspan>inkss.cn</tspan></tspan></text><path d="M484.413 900.8v-45" stroke="#323232" stroke-width="2" fill="none" marker-end="url(#n)"/><path fill="#fff" d="M468.413 870.3h32v16h-32z"/><text font-family="微软雅黑" text-anchor="middle" font-size="13" fill="#323232" font-weight="400" y="868.675"><tspan dy="16" x="484.413"><tspan>https</tspan></tspan></text><path d="M311.413 376.4h115" stroke="#323232" stroke-width="2" fill="none" marker-end="url(#o)"/><path fill="#fff" d="M353.413 368.4h31v16h-31z"/><text font-family="微软雅黑" text-anchor="middle" font-size="13" fill="#323232" font-weight="400" y="366.775"><tspan dy="16" x="368.913"><tspan>need</tspan></tspan></text><path d="M708.913 376.4h-166.5" stroke="#323232" stroke-width="2" fill="none" marker-end="url(#p)"/><path fill="#fff" d="M610.163 368.4h31v16h-31z"/><text font-family="微软雅黑" text-anchor="middle" font-size="13" fill="#323232" font-weight="400" y="366.775"><tspan dy="16" x="625.663"><tspan>need</tspan></tspan></text><path d="M407.012 520.4v142.7h77.4v38.7" stroke="#323232" stroke-width="2" fill="none" marker-end="url(#q)"/><path fill="#fff" d="M425.913 654.4h39v16h-39z"/><text font-family="微软雅黑" text-anchor="middle" font-size="13" fill="#323232" font-weight="400" y="652.775"><tspan dy="16" x="445.413"><tspan>热备源</tspan></tspan></text><path d="M546.913 263h224.5v88.4" stroke="#323232" stroke-width="2" fill="none" marker-end="url(#r)"/><path fill="#fff" d="M617.663 255h85v16h-85z"/><text font-family="微软雅黑" text-anchor="middle" font-size="13" fill="#323232" font-weight="400" y="253.375"><tspan dy="16" x="660.163"><tspan>ubuntu-latest</tspan></tspan></text><path d="M708.913 472.4h125v50h-125z" stroke="rgba(50,50,50,1)" stroke-width="2" fill="#fff"/><text font-family="微软雅黑" text-anchor="middle" font-size="13" fill="#323232" font-weight="400" y="15.375" transform="translate(708.913 472.4)"><tspan dy="16" x="62.5"><tspan>腾讯云对象存储</tspan></tspan></text><path d="M631.913 497.4h77" stroke="#323232" stroke-width="2" fill="none" marker-end="url(#s)"/><path fill="#fff" d="M655.413 457.4h30v80h-30z"/><text font-family="微软雅黑" text-anchor="middle" font-size="13" fill="#323232" font-weight="400" y="455.775"><tspan dy="16" x="670.413"><tspan>Gulp </tspan></tspan><tspan dy="16" x="670.413"><tspan>静态</tspan></tspan><tspan dy="16" x="670.413"><tspan>资源</tspan></tspan><tspan dy="16" x="670.413"><tspan>链接</tspan></tspan><tspan dy="16" x="670.413"><tspan>替换</tspan></tspan></text><path d="M771.413 401.4v71" stroke="#323232" stroke-width="2" fill="none" marker-end="url(#t)"/><path fill="#fff" d="M678.413 419.4h186v16h-186z"/><text font-family="微软雅黑" text-anchor="middle" font-size="13" fill="#323232" font-weight="400" y="417.775"><tspan dy="16" x="771.413"><tspan>hexo deploy --config _oss.yml</tspan></tspan></text><path d="M771.413 522.4v54" stroke="#323232" stroke-width="2" fill="none" marker-end="url(#u)"/><path fill="#fff" d="M698.413 535.4h146v16h-146z"/><text font-family="微软雅黑" text-anchor="middle" font-size="13" fill="#323232" font-weight="400" y="533.775"><tspan dy="16" x="771.413"><tspan>hexo-deployer-cos-cdn</tspan></tspan></text></svg>