<svg xmlns="http://www.w3.org/2000/svg" width="400" height="400" viewBox="0 0 400 400"><g fill-rule="evenodd"><path d="M205.861 39.376c1.367 1.454-.402 6.278-4.438 12.105-8.607 12.429-6.12 15.278 10.322 11.825 13.533-2.842 15.945-3.289 18.06-3.347 4.573-.126 4.71.266 1.136 3.261-5.132 4.302-10.464 11.335-13.822 18.232-2.701 5.549-2.668 5.89 1.333 13.918 9.162 18.385 10.091 27.876 3.933 40.212-2.932 5.873-3.652 11.222-2.176 16.161.394 1.317.656 3.505.679 5.664l.038 3.519-4.259 2.83c-14.385 9.557-19.678 10.42-32.623 5.321-10.856-4.276-14.774-5.078-17.615-3.603-5.408 2.808-8.912 13.117-6.423 18.901 3.268 7.598 13.403 11.09 46.475 16.015 4.773.711 7.544 1.132 14.374 2.187 15.172 2.342 21.864 7.439 21.905 16.682.017 3.761-.556 5.074-3.696 8.465-5.062 5.468-8.928 5.432-23.79-.224-9.853-3.749-12.397-3.573-23.384 1.617-9.835 4.646-10.338 5.725-8.341 17.878 1.041 6.336 1.041 6.334-2.06 14.282-5.536 14.189-5 22.473 2.603 40.204 4.335 10.108 4.344 9.98-1.446 19.806-3.097 5.256-6.041 8.55-10.928 12.229-3.061 2.304-3.954 3.538-3.21 4.434.971 1.17 2.905.818 16.94-3.081 10.134-2.816 19.328-3.488 21.375-1.564 2.295 2.158 1.026 5.381-6.561 16.668-5.964 8.872-4.968 10.59 5.962 10.28 77.85-2.207 143.395-60.768 154.491-138.031 2.015-14.033 2.038-34.07.046-41.296-.393-1.426-1.314-4.843-2.046-7.593-5.111-19.196-12.644-31.218-25.675-40.977-15.355-11.499-36.147-14.876-49.892-8.104-10.436 5.141-17.592 16.373-17.592 27.608 0 15.266 18.55 23.492 24.359 10.803 1.158-2.529.976-4.147-.85-7.567-3.535-6.621 1.672-10.063 9.337-6.172 16.849 8.552 9.214 36.881-11.387 42.251-26.507 6.911-51.432-19.032-45.928-47.803 8.044-42.045 55.974-57.907 93.539-30.955 4.138 2.968 4.221 2.92 1.667-.979-28.477-43.46-80.153-72.915-127.932-72.919h-3.305l.805.857m-11.807 4.733c-18.308 1.172-23.52 4.668-12.98 8.706 2.796 1.071 4.335 2.515 5.285 4.961 1.815 4.676 4.088 3.96 6.594-2.078 1.358-3.273 2.117-4.475 4.179-6.624 2.779-2.896 3.838-5.457 2.198-5.317-.344.03-2.719.188-5.276.352m-1.507 70.613c1.223 1.375 3.919 4.75 5.992 7.5 6.13 8.136 7.397 8.936 10.008 6.325 3.302-3.302-2.812-11.165-11.065-14.233-2.34-.87-6.378-2.092-6.914-2.092-.135 0 .756 1.125 1.979 2.5m-37.362 8.717c14.053 5.763 16.405 7.171 29.742 17.804 2.352 1.876 3.834 2.817 4.209 2.673.957-.367-.083-1.535-4.729-5.31-9.608-7.807-17.778-12.467-27.802-15.859-6.944-2.349-7.808-1.928-1.42.692m-9.189 12.68c.106.106 2.925.519 6.265.916 12.973 1.546 16.136 2.413 29.191 8.002 4.04 1.73 6.582 2.632 6.801 2.414 1.912-1.912-18.43-9.325-30.029-10.943-3.891-.542-12.661-.822-12.228-.389m9.93 11.332c-4.281.428-10.624 1.713-11.808 2.391-.672.385-.742.498-.229.369.407-.102 3.824-.54 7.592-.972 11.357-1.303 17.63-1.069 30.371 1.131 5.097.881 5.555.898 5.555.207 0-2.192-20.487-4.227-31.481-3.126m56.508 8.316c-.319.319-.679 1.028-.8 1.574a131.6 131.6 0 0 1-.789 3.215c-1.269 4.946-1.298 4.919 2.934 2.693 4.636-2.439 6.353-4.834 3.808-5.311-.752-.142-1.83-.773-2.555-1.499-1.411-1.411-1.767-1.503-2.598-.672m-97.093 55.49c-22.622 5.978-28.675 38.626-8.078 43.567 6.234 1.496 8.746-1.809 5.779-7.602-2.297-4.484-1.819-7.297 1.901-11.197 5.065-5.31 15.966-1.598 20.146 6.86l1.392 2.817v5.02c0 21.079-19.936 34.968-43.148 30.059-24.02-5.081-41.51-22.244-48.727-47.818-1.669-5.916-1.612-3.816.091 3.333 4.407 18.501 12.108 36.371 22.135 51.364 7.067 10.569 33.626 18.36 50.982 14.957 49.689-9.745 61.051-77.164 15.332-90.982-4.921-1.488-12.961-1.658-17.805-.378m77.833 21.058c-.135.458-.656 2.401-1.157 4.317-1.308 5.002-1.837 5.409-4.129 3.183-.734-.713-1.693-1.296-2.13-1.296-.785 0-1.684-.625-1.684-1.171 0-.864 4.305-4.041 6.905-5.096 2.319-.941 2.49-.936 2.195.063m28.413 15.988c13.933 2.369 24.468 2.373 37.302.012.687-.127.592-.017-.37.429-5.727 2.647-22.56 3.463-34.26 1.662-8.188-1.261-9.495-1.647-8.889-2.628.304-.492.18-.502 6.217.525m-4.582 3.348c2.336 1.183 11.662 5.018 15.217 6.256 4.496 1.567 11.623 2.917 20.926 3.966 5.548.626 4.626.967-2.037.755-12.448-.397-39.134-8.926-36.42-11.64.343-.343.311-.352 2.314.663m3.359 7.651c10.423 8.275 15.984 11.451 28.506 16.282 4.828 1.862 4.596 2.356-.43.915-8.878-2.547-17.922-7.263-26.944-14.049-6.032-4.538-9.383-8.019-7.7-8 .255.003 3.21 2.186 6.568 4.852m-21.121 10.739c.633.633 2.854 3.421 4.936 6.194 2.081 2.774 4.766 6.093 5.965 7.377 2.687 2.874 2.583 2.996-1.496 1.752-8.433-2.572-15.315-8.289-15.315-12.723 0-3.567 3.432-5.078 5.91-2.6m15.321 67.91c.299.298 1.175 1.673 1.947 3.055 1.908 3.415 2.224 3.671 6.522 5.279 9.683 3.623 2.212 7.266-17.014 8.298-4.488.241-4.395-.88.501-6.064.673-.713 1.998-2.963 2.945-5 2.611-5.619 3.776-6.891 5.099-5.568" fill="#fafafa"/><path d="M0 200v200h400V0H0v200M215.741 38.893c49.425 4.538 93.286 30.933 120.552 72.545 2.554 3.899 2.471 3.947-1.667.979-37.565-26.952-85.495-11.09-93.539 30.955-5.504 28.771 19.421 54.714 45.928 47.803 20.601-5.37 28.236-33.699 11.387-42.251-7.665-3.891-12.872-.449-9.337 6.172 1.826 3.42 2.008 5.038.85 7.567-2.899 6.332-8.519 7.913-15.496 4.36-15.14-7.711-9.853-33.616 8.729-42.771 13.745-6.772 34.537-3.395 49.892 8.104 13.031 9.759 20.564 21.781 25.675 40.977.732 2.75 1.653 6.167 2.046 7.593 1.992 7.226 1.969 27.263-.046 41.296-11.096 77.263-76.641 135.824-154.491 138.031-10.93.31-11.926-1.408-5.962-10.28 7.587-11.287 8.856-14.51 6.561-16.668-2.047-1.924-11.241-1.252-21.375 1.564-14.035 3.899-15.969 4.251-16.94 3.081-.744-.896.149-2.13 3.21-4.434 4.887-3.679 7.831-6.973 10.928-12.229 5.79-9.826 5.781-9.698 1.446-19.806-7.603-17.731-8.139-26.015-2.603-40.204 3.101-7.948 3.101-7.946 2.06-14.282-1.997-12.153-1.494-13.232 8.341-17.878 10.987-5.19 13.531-5.366 23.384-1.617 14.862 5.656 18.728 5.692 23.79.224 3.14-3.391 3.713-4.704 3.696-8.465-.041-9.243-6.733-14.34-21.905-16.682a2270.57 2270.57 0 0 0-14.374-2.187c-33.072-4.925-43.207-8.417-46.475-16.015-2.489-5.784 1.015-16.093 6.423-18.901 2.841-1.475 6.759-.673 17.615 3.603 12.945 5.099 18.238 4.236 32.623-5.321l4.259-2.83-.038-3.519c-.023-2.159-.285-4.347-.679-5.664-1.476-4.939-.756-10.288 2.176-16.161 6.158-12.336 5.229-21.827-3.933-40.212-4.001-8.028-4.034-8.369-1.333-13.918 3.358-6.897 8.69-13.93 13.822-18.232 3.574-2.995 3.437-3.387-1.136-3.261-2.115.058-4.527.505-18.06 3.347-16.442 3.453-18.929.604-10.322-11.825 4.036-5.827 5.805-10.651 4.438-12.105l-.805-.857h3.305c1.818 0 5.139.168 7.38.374m-15.549 5.192c.317.513-1.309 3.165-3.06 4.989-2.062 2.149-2.821 3.351-4.179 6.624-2.506 6.038-4.779 6.754-6.594 2.078-.95-2.446-2.489-3.89-5.285-4.961-10.54-4.038-5.328-7.534 12.98-8.706 2.557-.164 4.932-.322 5.276-.352.344-.029.732.118.862.328m-7.286 68.722c11.42 3.186 19.781 11.6 15.641 15.74-2.611 2.611-3.878 1.811-10.008-6.325-2.073-2.75-4.769-6.125-5.992-7.5-1.223-1.375-2.114-2.5-1.979-2.5.134 0 1.186.263 2.338.585m-36.301 9.94c10.024 3.392 18.194 8.052 27.802 15.859 4.646 3.775 5.686 4.943 4.729 5.31-.375.144-1.857-.797-4.209-2.673-13.337-10.633-15.689-12.041-29.742-17.804-6.388-2.62-5.524-3.041 1.42-.692m1.619 13.761c11.599 1.618 31.941 9.031 30.029 10.943-.219.218-2.761-.684-6.801-2.414-13.055-5.589-16.218-6.456-29.191-8.002-3.34-.397-6.159-.81-6.265-.916-.433-.433 8.337-.153 12.228.389m15.665 11.081c8.709.904 13.518 1.967 13.518 2.988 0 .691-.458.674-5.555-.207-12.741-2.2-19.014-2.434-30.371-1.131-3.768.432-7.185.87-7.592.972-.513.129-.443.016.229-.369 3.847-2.203 19.111-3.358 29.771-2.253m41.143 8.85c.725.726 1.803 1.357 2.555 1.499 2.545.477.828 2.872-3.808 5.311-4.232 2.226-4.203 2.253-2.934-2.693a131.6 131.6 0 0 0 .789-3.215c.511-2.32 1.672-2.628 3.398-.902m-81.886 55.196c45.719 13.818 34.357 81.237-15.332 90.982-17.356 3.403-43.915-4.388-50.982-14.957-10.027-14.993-17.728-32.863-22.135-51.364-1.703-7.149-1.76-9.249-.091-3.333 7.217 25.574 24.707 42.737 48.727 47.818 23.212 4.909 43.148-8.98 43.148-30.059v-5.02l-1.392-2.817c-4.18-8.458-15.081-12.17-20.146-6.86-3.72 3.9-4.198 6.713-1.901 11.197 2.427 4.737 1.933 6.637-1.989 7.652-7.778 2.013-16.27-7.076-16.267-17.413.005-18.873 19.016-31.673 38.36-25.826m57.833 20.617c-2.6 1.055-6.905 4.232-6.905 5.096 0 .546.899 1.171 1.684 1.171.437 0 1.396.583 2.13 1.296 2.292 2.226 2.821 1.819 4.129-3.183a260.713 260.713 0 0 1 1.157-4.317c.295-.999.124-1.004-2.195-.063m24.391 15.526c-.606.981.701 1.367 8.889 2.628 11.7 1.801 28.533.985 34.26-1.662.962-.446 1.057-.556.37-.429-12.834 2.361-23.369 2.357-37.302-.012-6.037-1.027-5.913-1.017-6.217-.525m-.679 3.21c-2.714 2.714 23.972 11.243 36.42 11.64 6.663.212 7.585-.129 2.037-.755-9.303-1.049-16.43-2.399-20.926-3.966-3.555-1.238-12.881-5.073-15.217-6.256-2.003-1.015-1.971-1.006-2.314-.663m-1.358 3.97c0 .701 3.929 4.307 8.163 7.492 9.022 6.786 18.066 11.502 26.944 14.049 5.026 1.441 5.258.947.43-.915-12.522-4.831-18.083-8.007-28.506-16.282-5.96-4.732-7.031-5.394-7.031-4.344M195 269.317c-5.742 3.14 2.287 12.582 13.648 16.047 4.079 1.244 4.183 1.122 1.496-1.752-1.199-1.284-3.884-4.603-5.965-7.377-5.621-7.49-6.678-8.287-9.179-6.918m17.094 69.294c-.499.662-1.682 2.87-2.629 4.908-.947 2.037-2.272 4.287-2.945 5-4.896 5.184-4.989 6.305-.501 6.064 19.226-1.032 26.697-4.675 17.014-8.298-4.298-1.608-4.614-1.864-6.522-5.279-2.25-4.028-2.915-4.388-4.417-2.395" fill="#040404"/></g></svg>