<svg width="128" height="128" viewBox="0 0 128 128" xmlns="http://www.w3.org/2000/svg"><g fill="none" fill-rule="evenodd"><g fill-rule="nonzero"><path fill="#F2F2F2" d="M0 0h128v128H0z"/><path d="m31.318 36.381 53.388-14.276c1.66-.443 3.43.553 3.872 2.214L99.145 63.55c.443 1.66-.553 3.375-2.268 3.818L43.489 81.645c-1.66.443-3.43-.553-3.872-2.214L29.105 40.2a3.128 3.128 0 0 1 2.213-3.818z" fill="#FFF"/><path d="m35.813 39.531 46.644-12.454c1.27-.332 2.597.443 2.984 1.716l8.732 32.492c.332 1.273-.442 2.602-1.713 2.934L45.816 76.673c-1.271.332-2.598-.443-2.984-1.716L34.1 42.465c-.387-1.273.387-2.602 1.713-2.934z" fill="#208DB2"/><path d="M41.145 36h55.46a3.147 3.147 0 0 1 3.145 3.152v41.196a3.147 3.147 0 0 1-3.145 3.152h-55.46A3.147 3.147 0 0 1 38 80.348V39.152C38 37.438 39.435 36 41.145 36z" fill="#FFF"/><path d="M44.688 40.25h48.374a2.458 2.458 0 0 1 2.438 2.436v33.878A2.458 2.458 0 0 1 93.062 79H44.688a2.458 2.458 0 0 1-2.438-2.436V42.686a2.423 2.423 0 0 1 2.438-2.436z" fill="#A3E0F5"/><path d="M42.25 42.704v11.934c.548.056 1.096.112 1.644.112 6.96 0 12.606-5.744 12.606-12.827 0-.558-.055-1.115-.11-1.673H44.662c-1.37 0-2.412 1.115-2.412 2.454z" fill="#EFC75E"/><path d="M46.284 67.5c-1.381 0-2.763.11-4.034.274v8.816c0 1.315 1.105 2.41 2.432 2.41h18.402c.11-.493.166-.93.166-1.424 0-5.586-7.571-10.076-16.966-10.076z" fill="#3DB39E"/><path d="M84.967 62.5c-15.189 0-27.55 7.37-27.717 16.5h35.81c1.331 0 2.44-1.1 2.44-2.42V63.765c-3.27-.77-6.818-1.265-10.533-1.265z" fill="#4BC2AD"/></g><text font-family="Menlo-Bold, Menlo, 'Microsoft YaHei'" font-size="16" font-weight="bold" fill="#888">
            <tspan x="30.285" y="112">LOADING</tspan>
        </text></g></svg>